<?xml version="1.0" encoding="UTF-8" standalone="no"?>
<!DOCTYPE svg PUBLIC "-//W3C//DTD SVG 1.1//EN" "http://www.w3.org/Graphics/SVG/1.1/DTD/svg11.dtd">
<!-- Created with Vectornator (http://vectornator.io/) -->
<svg height="100%" stroke-miterlimit="10" style="fill-rule:nonzero;clip-rule:evenodd;stroke-linecap:round;stroke-linejoin:round;" version="1.1" viewBox="0 0 300 300" width="100%" xml:space="preserve" xmlns="http://www.w3.org/2000/svg" xmlns:vectornator="http://vectornator.io" xmlns:xlink="http://www.w3.org/1999/xlink">
<defs/>
<g id="Layer-1" vectornator:layerName="Layer 1">
<path d="M169.421 166.91L219.413 218.848L168.86 224.768L169.421 166.91Z" fill="#eebf5b" fill-rule="nonzero" opacity="1" stroke="#224767" stroke-dasharray="1.0" stroke-linecap="butt" stroke-linejoin="miter" stroke-width="0.600074" vectornator:layerName="Curve 42"/>
<path d="M203.319 34.3481L203.895 91.1799L231.495 118.281L203.319 34.3481Z" fill="#8e99b9" fill-rule="nonzero" opacity="1" stroke="#224767" stroke-dasharray="1.0" stroke-linecap="butt" stroke-linejoin="miter" stroke-width="0.600074" vectornator:layerName="Curve 24"/>
<path d="M35.4475 34.1637L35.8475 90.9593L64.133 118.583L64.1304 61.9297L35.4475 34.1637Z" fill="#b4befe" fill-rule="nonzero" opacity="1" stroke="#224767" stroke-linecap="butt" stroke-linejoin="miter" stroke-width="0.600074" vectornator:layerName="Curve 1"/>
<path d="M85.487 27.6539L85.8871 84.4496L114.173 112.073L114.17 55.42L85.487 27.6539Z" fill="none" opacity="1" stroke="#224767" stroke-linecap="butt" stroke-linejoin="miter" stroke-width="0.600074" vectornator:layerName="Curve 2"/>
<path d="M35.9351 90.6596L64.6066 119.331L113.402 111.301L85.6305 83.6914L35.9351 90.6596Z" fill="none" opacity="1" stroke="#224767" stroke-linecap="butt" stroke-linejoin="miter" stroke-width="0.600074" vectornator:layerName="Curve 3"/>
<path d="M35.4475 33.6221L64.119 62.2936L112.914 54.2638L85.1429 26.6539L35.4475 33.6221Z" fill="#94e2d5" fill-rule="nonzero" opacity="1" stroke="#224767" stroke-linecap="butt" stroke-linejoin="miter" stroke-width="0.600074" vectornator:layerName="Curve 4"/>
<path d="M64.5021 62.0776L64.1021 118.76L113.473 111.55L113.592 54.818L64.5021 62.0776Z" fill="#a6e3a1" fill-rule="nonzero" opacity="1" stroke="#224767" stroke-linecap="butt" stroke-linejoin="miter" stroke-width="0.600074" vectornator:layerName="Curve 5"/>
<g opacity="1" vectornator:layerName="Curve 6">
<path d="M91.5331 23.1798C97.125 21.9593 112.59 19.1093 117.592 23.6539C129.16 34.1637 117.592 50.818 117.592 50.818" fill="none" opacity="1" stroke="#b4befe" stroke-linecap="butt" stroke-linejoin="miter" stroke-width="0.600074" vectornator:layerName="path"/>
<path d="M92.0446 23.0612L93.105 20.6596L89.4871 23.6539L94.0533 24.7516L92.0446 23.0612Z" fill="#224767" fill-rule="nonzero" opacity="1" stroke="#b4befe" stroke-linecap="butt" stroke-linejoin="miter" stroke-width="0.600074" vectornator:layerName="path"/>
</g>
<path d="M60.133 118.583C60.133 116.374 61.9238 114.583 64.133 114.583C66.3421 114.583 68.133 116.374 68.133 118.583C68.133 120.792 66.3421 122.583 64.133 122.583C61.9238 122.583 60.133 120.792 60.133 118.583Z" fill="#f5e0dc" fill-rule="nonzero" opacity="1" stroke="#224767" stroke-linecap="butt" stroke-linejoin="miter" stroke-width="0.600074" vectornator:layerName="Oval 1"/>
<path d="M109.592 112.073C109.592 109.864 111.383 108.073 113.592 108.073C115.801 108.073 117.592 109.864 117.592 112.073C117.592 114.283 115.801 116.073 113.592 116.073C111.383 116.073 109.592 114.283 109.592 112.073Z" fill="#f5e0dc" fill-rule="nonzero" opacity="1" stroke="#224767" stroke-linecap="butt" stroke-linejoin="miter" stroke-width="0.600074" vectornator:layerName="Oval 2"/>
<path d="M109.402 54.818C109.402 52.6088 111.193 50.818 113.402 50.818C115.611 50.818 117.402 52.6088 117.402 54.818C117.402 57.0271 115.611 58.818 113.402 58.818C111.193 58.818 109.402 57.0271 109.402 54.818Z" fill="#f5e0dc" fill-rule="nonzero" opacity="1" stroke="#224767" stroke-linecap="butt" stroke-linejoin="miter" stroke-width="0.600074" vectornator:layerName="Oval 3"/>
<path d="M60.1021 62.2936C60.1021 60.0845 61.8929 58.2936 64.1021 58.2936C66.3112 58.2936 68.1021 60.0845 68.1021 62.2936C68.1021 64.5028 66.3112 66.2936 64.1021 66.2936C61.8929 66.2936 60.1021 64.5028 60.1021 62.2936Z" fill="#f5e0dc" fill-rule="nonzero" opacity="1" stroke="#224767" stroke-linecap="butt" stroke-linejoin="miter" stroke-width="0.600074" vectornator:layerName="Oval 4"/>
<path d="M31.4475 90.7889C31.4475 88.5798 33.2383 86.7889 35.4475 86.7889C37.6566 86.7889 39.4475 88.5798 39.4475 90.7889C39.4475 92.9981 37.6566 94.7889 35.4475 94.7889C33.2383 94.7889 31.4475 92.9981 31.4475 90.7889Z" fill="#f5e0dc" fill-rule="nonzero" opacity="1" stroke="#224767" stroke-linecap="butt" stroke-linejoin="miter" stroke-width="0.600074" vectornator:layerName="Oval 5"/>
<path d="M31.9351 34.1637C31.9351 31.9545 33.726 30.1637 35.9351 30.1637C38.1443 30.1637 39.9351 31.9545 39.9351 34.1637C39.9351 36.3728 38.1443 38.1637 35.9351 38.1637C33.726 38.1637 31.9351 36.3728 31.9351 34.1637Z" fill="#f5e0dc" fill-rule="nonzero" opacity="1" stroke="#224767" stroke-linecap="butt" stroke-linejoin="miter" stroke-width="0.600074" vectornator:layerName="Oval 6"/>
<path d="M81.487 27.6539C81.487 25.4448 83.2779 23.6539 85.487 23.6539C87.6962 23.6539 89.487 25.4448 89.487 27.6539C89.487 29.8631 87.6962 31.6539 85.487 31.6539C83.2779 31.6539 81.487 29.8631 81.487 27.6539Z" fill="#f5e0dc" fill-rule="nonzero" opacity="1" stroke="#224767" stroke-linecap="butt" stroke-linejoin="miter" stroke-width="0.600074" vectornator:layerName="Oval 7"/>
<g opacity="1" vectornator:layerName="Curve 7">
<path d="M117.699 79.9798C114.169 79.9438 78.3463 79.5782 78.3463 79.5782" fill="none" opacity="1" stroke="#d5694f" stroke-linecap="butt" stroke-linejoin="miter" stroke-width="0.58921" vectornator:layerName="path"/>
<path d="M117.183 79.9745L115.615 82.0209L119.761 80.0008L115.657 77.8966L117.183 79.9745Z" fill="#d5694f" fill-rule="nonzero" opacity="1" stroke="none" vectornator:layerName="path"/>
</g>
<g opacity="1" vectornator:layerName="Curve 8">
<path d="M104.882 105.614C102.503 103.232 78.8408 79.5461 78.8408 79.5461" fill="none" opacity="1" stroke="#d5694f" stroke-linecap="butt" stroke-linejoin="miter" stroke-width="0.58921" vectornator:layerName="path"/>
<path d="M104.518 105.249L101.966 105.612L106.34 107.073L104.884 102.697L104.518 105.249Z" fill="#d5694f" fill-rule="nonzero" opacity="1" stroke="none" vectornator:layerName="path"/>
</g>
<g opacity="1" vectornator:layerName="Curve 9">
<path d="M78.721 52.7389C78.7329 55.4163 78.8408 79.8246 78.8408 79.8246" fill="none" opacity="1" stroke="#d5694f" stroke-linecap="butt" stroke-linejoin="miter" stroke-width="0.58921" vectornator:layerName="path"/>
<path d="M78.7233 53.2545L80.7924 54.792L78.7119 50.6767L76.6679 54.8103L78.7233 53.2545Z" fill="#d5694f" fill-rule="nonzero" opacity="1" stroke="none" vectornator:layerName="path"/>
</g>
<text fill="#224767" font-family="Helvetica" font-size="8" opacity="1" stroke="none" text-anchor="start" transform="matrix(1 0 0 1 105.665 102.073)" vectornator:layerName="tspan" vectornator:width="7.88672" x="0" y="0">
<tspan textLength="4.88672" x="0" y="8">η</tspan>
</text>
<text fill="#224767" font-family="Helvetica" font-size="8" opacity="1" stroke="none" text-anchor="start" transform="matrix(1 0 0 1 110.552 102.073)" vectornator:layerName="tspan" vectornator:width="7.44922" x="0" y="0">
<tspan textLength="4.44922" x="0" y="8">1</tspan>
</text>
<text fill="#224767" font-family="Helvetica" font-size="8" opacity="1" stroke="none" text-anchor="start" transform="matrix(1 0 0 1 121.719 74.5782)" vectornator:layerName="tspan" vectornator:width="7.88672" x="0" y="0">
<tspan textLength="4.88672" x="0" y="8">η</tspan>
</text>
<text fill="#224767" font-family="Helvetica" font-size="8" opacity="1" stroke="none" text-anchor="start" transform="matrix(1 0 0 1 126.606 74.5782)" vectornator:layerName="tspan" vectornator:width="7.44922" x="0" y="0">
<tspan textLength="4.44922" x="0" y="8">2</tspan>
</text>
<text fill="#224767" font-family="Helvetica" font-size="8" opacity="1" stroke="none" text-anchor="start" transform="matrix(1 0 0 1 84.4025 49.5987)" vectornator:layerName="tspan" vectornator:width="12.3359" x="0" y="0">
<tspan textLength="9.33594" x="0" y="8">η3</tspan>
</text>
<path d="M154 41.8327L154.4 98.6283L182.685 126.252L182.683 69.5987L154 41.8327Z" fill="none" opacity="1" stroke="#224767" stroke-dasharray="1.0" stroke-linecap="butt" stroke-linejoin="miter" stroke-width="0.600074" vectornator:layerName="Curve 10"/>
<path d="M204.04 35.3229L204.44 92.1186L232.725 119.742L232.722 63.089L204.04 35.3229Z" fill="none" opacity="1" stroke="#224767" stroke-dasharray="1.0" stroke-linecap="butt" stroke-linejoin="miter" stroke-width="0.600074" vectornator:layerName="Curve 11"/>
<path d="M154.488 98.3286L183.159 127L231.954 118.97L204.183 91.3604L154.488 98.3286Z" fill="#d9d7b7" fill-rule="nonzero" opacity="1" stroke="#224767" stroke-linecap="butt" stroke-linejoin="miter" stroke-width="0.600074" vectornator:layerName="Curve 12"/>
<g opacity="1" vectornator:layerName="Curve 15">
<path d="M155.836 32.551C159.609 28.1594 170.539 16.2791 178.685 15.871C194.295 15.0891 200.04 27.6539 200.04 27.6539" fill="none" opacity="1" stroke="#b4befe" stroke-linecap="butt" stroke-linejoin="miter" stroke-width="0.600074" vectornator:layerName="path"/>
<path d="M156.173 32.1481L155.571 29.5925L154.489 34.1624L158.794 32.2866L156.173 32.1481Z" fill="#224767" fill-rule="nonzero" opacity="1" stroke="#b4befe" stroke-linecap="butt" stroke-linejoin="miter" stroke-width="0.600074" vectornator:layerName="path"/>
</g>
<g opacity="1" vectornator:layerName="Curve 16">
<path d="M258.385 84.71C256.262 84.6884 238.144 84.5035 238.144 84.5035" fill="none" opacity="1" stroke="#d5694f" stroke-linecap="butt" stroke-linejoin="miter" stroke-width="0.58921" vectornator:layerName="path"/>
<path d="M257.87 84.7048L256.302 86.7511L260.447 84.7311L256.344 82.6269L257.87 84.7048Z" fill="#d5694f" fill-rule="nonzero" opacity="1" stroke="none" vectornator:layerName="path"/>
</g>
<g opacity="1" vectornator:layerName="Curve 17">
<path d="M251.761 97.85C250.344 96.432 238.411 84.4862 238.411 84.4862" fill="none" opacity="1" stroke="#d5694f" stroke-linecap="butt" stroke-linejoin="miter" stroke-width="0.58921" vectornator:layerName="path"/>
<path d="M251.397 97.4853L248.845 97.8485L253.219 99.3089L251.763 94.9336L251.397 97.4853Z" fill="#d5694f" fill-rule="nonzero" opacity="1" stroke="none" vectornator:layerName="path"/>
</g>
<g opacity="1" vectornator:layerName="Curve 18">
<path d="M238.35 71.0015C238.357 72.5044 238.411 84.6362 238.411 84.6362" fill="none" opacity="1" stroke="#d5694f" stroke-linecap="butt" stroke-linejoin="miter" stroke-width="0.58921" vectornator:layerName="path"/>
<path d="M238.353 71.517L240.422 73.0545L238.341 68.9392L236.297 73.0728L238.353 71.517Z" fill="#d5694f" fill-rule="nonzero" opacity="1" stroke="none" vectornator:layerName="path"/>
</g>
<text fill="#d0453b" font-family="Helvetica" font-size="8" opacity="1" stroke="none" text-anchor="start" transform="matrix(1 0 0 1 252.856 96.6175)" vectornator:layerName="tspan" vectornator:width="7.88672" x="0" y="0">
<tspan textLength="4.88672" x="0" y="8">η</tspan>
</text>
<text fill="#d0453b" font-family="Helvetica" font-size="8" opacity="1" stroke="none" text-anchor="start" transform="matrix(1 0 0 1 257.743 96.6175)" vectornator:layerName="tspan" vectornator:width="7.44922" x="0" y="0">
<tspan textLength="4.44922" x="0" y="8">1</tspan>
</text>
<text fill="#224767" font-family="Helvetica" font-size="8" opacity="1" stroke="none" text-anchor="start" transform="matrix(1 0 0 1 261.501 81.8109)" vectornator:layerName="tspan" vectornator:width="7.88672" x="0" y="0">
<tspan textLength="4.88672" x="0" y="8">η</tspan>
</text>
<text fill="#224767" font-family="Helvetica" font-size="8" opacity="1" stroke="none" text-anchor="start" transform="matrix(1 0 0 1 266.388 81.8109)" vectornator:layerName="tspan" vectornator:width="7.44922" x="0" y="0">
<tspan textLength="4.44922" x="0" y="8">2</tspan>
</text>
<text fill="#224767" font-family="Helvetica" font-size="8" opacity="1" stroke="none" text-anchor="start" transform="matrix(1 0 0 1 241.406 68.3591)" vectornator:layerName="tspan" vectornator:width="12.3359" x="0" y="0">
<tspan textLength="9.33594" x="0" y="8">η3</tspan>
</text>
<path d="M154.287 97.8871L153.949 40.6624L203.834 34.1935L204.378 90.7016L154.287 97.8871Z" fill="#58888f" fill-rule="nonzero" opacity="1" stroke="#224767" stroke-linecap="butt" stroke-linejoin="miter" stroke-width="0.600074" vectornator:layerName="Curve 20"/>
<path d="M200.04 91.3604C200.04 89.1513 201.83 87.3604 204.04 87.3604C206.249 87.3604 208.04 89.1513 208.04 91.3604C208.04 93.5696 206.249 95.3604 204.04 95.3604C201.83 95.3604 200.04 93.5696 200.04 91.3604Z" fill="#f5e0dc" fill-rule="nonzero" opacity="1" stroke="#224767" stroke-linecap="butt" stroke-linejoin="miter" stroke-width="0.600074" vectornator:layerName="Oval 19"/>
<path d="M154.284 40.9539L203.608 34.4125L231.618 118.69L183.194 126.133L154.284 40.9539Z" fill="#a6e3a1" fill-rule="nonzero" opacity="1" stroke="#224767" stroke-dasharray="1.0" stroke-linecap="butt" stroke-linejoin="miter" stroke-width="0.600074" vectornator:layerName="Curve 25"/>
<path d="M154 41.2911L182.671 69.9626L231.467 61.9328L203.695 34.3229L154 41.2911Z" fill="none" opacity="1" stroke="#224767" stroke-dasharray="1.0" stroke-linecap="butt" stroke-linejoin="miter" stroke-width="0.600074" vectornator:layerName="Curve 21"/>
<path d="M154.535 41.0988L154.302 98.1898L183.066 126.798L154.535 41.0988Z" fill="#b4befe" fill-rule="nonzero" opacity="1" stroke="#224767" stroke-linecap="butt" stroke-linejoin="miter" stroke-width="0.600074" vectornator:layerName="Curve 22"/>
<path d="M183.055 69.7465L182.655 126.429L232.025 119.219L232.144 62.487L183.055 69.7465Z" fill="none" opacity="1" stroke="#224767" stroke-dasharray="1.0" stroke-linecap="butt" stroke-linejoin="miter" stroke-width="0.600074" vectornator:layerName="Curve 23"/>
<path d="M228.144 119.742C228.144 117.533 229.935 115.742 232.144 115.742C234.354 115.742 236.144 117.533 236.144 119.742C236.144 121.952 234.354 123.742 232.144 123.742C229.935 123.742 228.144 121.952 228.144 119.742Z" fill="#f5e0dc" fill-rule="nonzero" opacity="1" stroke="#224767" stroke-linecap="butt" stroke-linejoin="miter" stroke-width="0.600074" vectornator:layerName="Oval 20"/>
<path d="M217.872 160.559L218.449 217.391L246.049 244.492L217.872 160.559Z" fill="none" opacity="1" stroke="#224767" stroke-dasharray="1.0" stroke-linecap="butt" stroke-linejoin="miter" stroke-width="0.600074" vectornator:layerName="Curve 27"/>
<path d="M169.041 224.539L197.713 253.211L246.508 245.181L218.737 217.571L169.041 224.539Z" fill="#d9d7b7" fill-rule="nonzero" opacity="1" stroke="#224767" stroke-linecap="butt" stroke-linejoin="miter" stroke-width="0.600074" vectornator:layerName="Curve 30"/>
<g opacity="1" vectornator:layerName="Curve 32">
<path d="M272.939 210.921C270.816 210.899 252.698 210.714 252.698 210.714" fill="none" opacity="1" stroke="#d5694f" stroke-linecap="butt" stroke-linejoin="miter" stroke-width="0.58921" vectornator:layerName="path"/>
<path d="M272.423 210.916L270.856 212.962L275.001 210.942L270.898 208.838L272.423 210.916Z" fill="#d5694f" fill-rule="nonzero" opacity="1" stroke="none" vectornator:layerName="path"/>
</g>
<g opacity="1" vectornator:layerName="Curve 33">
<path d="M266.315 224.061C264.898 222.643 252.965 210.697 252.965 210.697" fill="none" opacity="1" stroke="#d5694f" stroke-linecap="butt" stroke-linejoin="miter" stroke-width="0.58921" vectornator:layerName="path"/>
<path d="M265.95 223.696L263.398 224.059L267.772 225.52L266.316 221.144L265.95 223.696Z" fill="#d5694f" fill-rule="nonzero" opacity="1" stroke="none" vectornator:layerName="path"/>
</g>
<g opacity="1" vectornator:layerName="Curve 34">
<path d="M252.904 197.212C252.911 198.715 252.965 210.847 252.965 210.847" fill="none" opacity="1" stroke="#d5694f" stroke-linecap="butt" stroke-linejoin="miter" stroke-width="0.58921" vectornator:layerName="path"/>
<path d="M252.906 197.728L254.976 199.265L252.895 195.15L250.851 199.284L252.906 197.728Z" fill="#d5694f" fill-rule="nonzero" opacity="1" stroke="none" vectornator:layerName="path"/>
</g>
<text fill="#d0453b" font-family="Helvetica" font-size="8" opacity="1" stroke="none" text-anchor="start" transform="matrix(1 0 0 1 267.41 222.828)" vectornator:layerName="tspan" vectornator:width="7.88672" x="0" y="0">
<tspan textLength="4.88672" x="0" y="8">η</tspan>
</text>
<text fill="#d0453b" font-family="Helvetica" font-size="8" opacity="1" stroke="none" text-anchor="start" transform="matrix(1 0 0 1 272.297 222.828)" vectornator:layerName="tspan" vectornator:width="7.44922" x="0" y="0">
<tspan textLength="4.44922" x="0" y="8">1</tspan>
</text>
<text fill="#daa987" font-family="Helvetica" font-size="8" opacity="1" stroke="none" text-anchor="start" transform="matrix(1 0 0 1 276.055 208.022)" vectornator:layerName="tspan" vectornator:width="11.4492" x="0" y="0">
<tspan textLength="8.44922" x="0" y="8">ξ2</tspan>
</text>
<text fill="#224767" font-family="Helvetica" font-size="8" opacity="1" stroke="none" text-anchor="start" transform="matrix(1 0 0 1 254.88 190.935)" vectornator:layerName="tspan" vectornator:width="11.4492" x="0" y="0">
<tspan textLength="8.44922" x="0" y="8">ξ3</tspan>
</text>
<path d="M168.841 224.098L168.503 166.873L218.388 160.404L218.932 216.912L168.841 224.098Z" fill="none" opacity="1" stroke="#224767" stroke-dasharray="1.0" stroke-linecap="butt" stroke-linejoin="miter" stroke-width="0.600074" vectornator:layerName="Curve 35"/>
<path d="M214.593 217.571C214.593 215.362 216.384 213.571 218.593 213.571C220.802 213.571 222.593 215.362 222.593 217.571C222.593 219.78 220.802 221.571 218.593 221.571C216.384 221.571 214.593 219.78 214.593 217.571Z" fill="#f5e0dc" fill-rule="nonzero" opacity="1" stroke="#224767" stroke-linecap="butt" stroke-linejoin="miter" stroke-width="0.600074" vectornator:layerName="Oval 25"/>
<path d="M168.838 167.165L218.162 160.623L232.52 203.823L236.53 215.891L246.171 244.901L197.747 252.344L168.838 167.165Z" fill="none" opacity="1" stroke="#224767" stroke-dasharray="1.0" stroke-linecap="butt" stroke-linejoin="miter" stroke-width="0.600074" vectornator:layerName="Curve 36"/>
<path d="M169.089 167.31L168.856 224.401L197.62 253.009L169.089 167.31Z" fill="#b4befe" fill-rule="nonzero" opacity="1" stroke="#224767" stroke-linecap="butt" stroke-linejoin="miter" stroke-width="0.600074" vectornator:layerName="Curve 38"/>
<path d="M150.488 41.8327C150.488 39.6235 152.279 37.8327 154.488 37.8327C156.697 37.8327 158.488 39.6235 158.488 41.8327C158.488 44.0418 156.697 45.8327 154.488 45.8327C152.279 45.8327 150.488 44.0418 150.488 41.8327Z" fill="#f5e0dc" fill-rule="nonzero" opacity="1" stroke="#224767" stroke-linecap="butt" stroke-linejoin="miter" stroke-width="0.600074" vectornator:layerName="Oval 16"/>
<path d="M150 98.4579C150 96.2488 151.791 94.4579 154 94.4579C156.209 94.4579 158 96.2488 158 98.4579C158 100.667 156.209 102.458 154 102.458C151.791 102.458 150 100.667 150 98.4579Z" fill="#f5e0dc" fill-rule="nonzero" opacity="1" stroke="#224767" stroke-linecap="butt" stroke-linejoin="miter" stroke-width="0.600074" vectornator:layerName="Oval 18"/>
<path d="M200.04 35.3229C200.04 33.1138 201.83 31.3229 204.04 31.3229C206.249 31.3229 208.04 33.1138 208.04 35.3229C208.04 37.5321 206.249 39.3229 204.04 39.3229C201.83 39.3229 200.04 37.5321 200.04 35.3229Z" fill="#f5e0dc" fill-rule="nonzero" opacity="1" stroke="#224767" stroke-linecap="butt" stroke-linejoin="miter" stroke-width="0.600074" vectornator:layerName="Oval 17"/>
<path d="M178.685 126.252C178.685 124.043 180.476 122.252 182.685 122.252C184.895 122.252 186.685 124.043 186.685 126.252C186.685 128.461 184.895 130.252 182.685 130.252C180.476 130.252 178.685 128.461 178.685 126.252Z" fill="#f5e0dc" fill-rule="nonzero" opacity="1" stroke="#224767" stroke-linecap="butt" stroke-linejoin="miter" stroke-width="0.600074" vectornator:layerName="Oval 8"/>
<path d="M169.041 166.91L197.62 253.211L246.698 245.953L169.041 166.91Z" fill="#a6e3a1" fill-rule="nonzero" opacity="1" stroke="#224767" stroke-linecap="butt" stroke-linejoin="miter" stroke-width="0.600074" vectornator:layerName="Curve 43"/>
<path d="M193.239 252.463C193.239 250.254 195.03 248.463 197.239 248.463C199.448 248.463 201.239 250.254 201.239 252.463C201.239 254.672 199.448 256.463 197.239 256.463C195.03 256.463 193.239 254.672 193.239 252.463Z" fill="#f5e0dc" fill-rule="nonzero" opacity="1" stroke="#224767" stroke-linecap="butt" stroke-linejoin="miter" stroke-width="0.600074" vectornator:layerName="Oval 21"/>
<path d="M242.698 245.953C242.698 243.744 244.489 241.953 246.698 241.953C248.907 241.953 250.698 243.744 250.698 245.953C250.698 248.162 248.907 249.953 246.698 249.953C244.489 249.953 242.698 248.162 242.698 245.953Z" fill="#f5e0dc" fill-rule="nonzero" opacity="1" stroke="#224767" stroke-linecap="butt" stroke-linejoin="miter" stroke-width="0.600074" vectornator:layerName="Oval 26"/>
<path d="M164.554 224.669C164.554 222.46 166.345 220.669 168.554 220.669C170.763 220.669 172.554 222.46 172.554 224.669C172.554 226.878 170.763 228.669 168.554 228.669C166.345 228.669 164.554 226.878 164.554 224.669Z" fill="#f5e0dc" fill-rule="nonzero" opacity="1" stroke="#224767" stroke-linecap="butt" stroke-linejoin="miter" stroke-width="0.600074" vectornator:layerName="Oval 24"/>
<path d="M165.041 168.044C165.041 165.834 166.832 164.044 169.041 164.044C171.251 164.044 173.041 165.834 173.041 168.044C173.041 170.253 171.251 172.044 169.041 172.044C166.832 172.044 165.041 170.253 165.041 168.044Z" fill="#f5e0dc" fill-rule="nonzero" opacity="1" stroke="#224767" stroke-linecap="butt" stroke-linejoin="miter" stroke-width="0.600074" vectornator:layerName="Oval 22"/>
<path d="M168.932 204.56L187.438 223.066L218.932 217.883L201.007 200.063L168.932 204.56Z" fill="none" opacity="1" stroke="#224767" stroke-dasharray="1.0" stroke-linecap="butt" stroke-linejoin="miter" stroke-width="0.600074" vectornator:layerName="Curve 44"/>
<path d="M33.0785 157.411L83.0701 209.35L32.517 215.27L33.0785 157.411Z" fill="#eebf5b" fill-rule="nonzero" opacity="1" stroke="#224767" stroke-dasharray="1.0" stroke-linecap="butt" stroke-linejoin="miter" stroke-width="0.600074" vectornator:layerName="Curve 45"/>
<g opacity="1" vectornator:layerName="Curve 48">
<path d="M104.643 184.029C102.52 184.007 84.4025 183.822 84.4025 183.822" fill="none" opacity="1" stroke="#d5694f" stroke-linecap="butt" stroke-linejoin="miter" stroke-width="0.58921" vectornator:layerName="path"/>
<path d="M104.128 184.024L102.56 186.07L106.705 184.05L102.602 181.946L104.128 184.024Z" fill="#d5694f" fill-rule="nonzero" opacity="1" stroke="none" vectornator:layerName="path"/>
</g>
<g opacity="1" vectornator:layerName="Curve 49">
<path d="M98.0191 197.169C96.6025 195.751 84.6687 183.805 84.6687 183.805" fill="none" opacity="1" stroke="#d5694f" stroke-linecap="butt" stroke-linejoin="miter" stroke-width="0.58921" vectornator:layerName="path"/>
<path d="M97.6547 196.804L95.1026 197.167L99.4765 198.628L98.0205 194.253L97.6547 196.804Z" fill="#d5694f" fill-rule="nonzero" opacity="1" stroke="none" vectornator:layerName="path"/>
</g>
<g opacity="1" vectornator:layerName="Curve 50">
<path d="M84.6084 170.32C84.6151 171.823 84.6687 183.955 84.6687 183.955" fill="none" opacity="1" stroke="#d5694f" stroke-linecap="butt" stroke-linejoin="miter" stroke-width="0.58921" vectornator:layerName="path"/>
<path d="M84.6107 170.836L86.6798 172.374L84.5993 168.258L82.5553 172.392L84.6107 170.836Z" fill="#d5694f" fill-rule="nonzero" opacity="1" stroke="none" vectornator:layerName="path"/>
</g>
<text fill="#d0453b" font-family="Helvetica" font-size="8" opacity="1" stroke="none" text-anchor="start" transform="matrix(1 0 0 1 99.1138 195.936)" vectornator:layerName="tspan" vectornator:width="11.4492" x="0" y="0">
<tspan textLength="8.44922" x="0" y="8">ξ1</tspan>
</text>
<text fill="#daa987" font-family="Helvetica" font-size="8" opacity="1" stroke="none" text-anchor="start" transform="matrix(1 0 0 1 107.759 181.13)" vectornator:layerName="tspan" vectornator:width="11.4492" x="0" y="0">
<tspan textLength="8.44922" x="0" y="8">ξ2</tspan>
</text>
<text fill="#224767" font-family="Helvetica" font-size="8" opacity="1" stroke="none" text-anchor="start" transform="matrix(1 0 0 1 86.5845 164.044)" vectornator:layerName="tspan" vectornator:width="11.4492" x="0" y="0">
<tspan textLength="8.44922" x="0" y="8">ξ3</tspan>
</text>
<path d="M32.7467 157.811L32.5132 214.902L61.2777 243.511L32.7467 157.811Z" fill="#b4befe" fill-rule="nonzero" opacity="1" stroke="#224767" stroke-linecap="butt" stroke-linejoin="miter" stroke-width="0.600074" vectornator:layerName="Curve 53"/>
<path d="M28.2112 215.171C28.2112 212.961 30.0021 211.171 32.2112 211.171C34.4204 211.171 36.2112 212.961 36.2112 215.171C36.2112 217.38 34.4204 219.171 32.2112 219.171C30.0021 219.171 28.2112 217.38 28.2112 215.171Z" fill="#f5e0dc" fill-rule="nonzero" opacity="1" stroke="#224767" stroke-linecap="butt" stroke-linejoin="miter" stroke-width="0.600074" vectornator:layerName="Oval 30"/>
<path d="M33.3627 158.189L61.273 242.89L82.5619 208.935L33.3627 158.189Z" fill="#a6e3a1" fill-rule="nonzero" opacity="1" stroke="#224767" stroke-linecap="butt" stroke-linejoin="miter" stroke-width="0.600074" vectornator:layerName="Curve 57"/>
<path d="M56.8967 242.965C56.8967 240.756 58.6876 238.965 60.8967 238.965C63.1058 238.965 64.8967 240.756 64.8967 242.965C64.8967 245.174 63.1058 246.965 60.8967 246.965C58.6876 246.965 56.8967 245.174 56.8967 242.965Z" fill="#f5e0dc" fill-rule="nonzero" opacity="1" stroke="#224767" stroke-linecap="butt" stroke-linejoin="miter" stroke-width="0.600074" vectornator:layerName="Oval 32"/>
<path d="M78.2508 208.073C78.2508 205.864 80.0416 204.073 82.2508 204.073C84.4599 204.073 86.2508 205.864 86.2508 208.073C86.2508 210.282 84.4599 212.073 82.2508 212.073C80.0416 212.073 78.2508 210.282 78.2508 208.073Z" fill="#f5e0dc" fill-rule="nonzero" opacity="1" stroke="#224767" stroke-linecap="butt" stroke-linejoin="miter" stroke-width="0.600074" vectornator:layerName="Oval 33"/>
<path d="M28.6989 158.545C28.6989 156.336 30.4897 154.545 32.6989 154.545C34.908 154.545 36.6989 156.336 36.6989 158.545C36.6989 160.754 34.908 162.545 32.6989 162.545C30.4897 162.545 28.6989 160.754 28.6989 158.545Z" fill="#f5e0dc" fill-rule="nonzero" opacity="1" stroke="#224767" stroke-linecap="butt" stroke-linejoin="miter" stroke-width="0.600074" vectornator:layerName="Oval 31"/>
</g>
</svg>
